<svg data-v-3b7c78b0="" width="14" height="14" viewBox="0 0 16 16" fill="none" xmlns="http://www.w3.org/2000/svg" data-test-id="img__star-rating" class="ui-icon ">
<path fill-rule="evenodd" clip-rule="evenodd" d="M15.6852 6.0819C15.6081 5.84494 15.3986 5.69162 15.1517 5.69162L10.1051 5.67884L8.51386 0.957173C8.43444 0.721379 8.22668 0.562829 7.97576 0.572702C7.72887 0.575606 7.52054 0.730091 7.4463 0.967626L5.95633 5.67884L0.848756 5.69162C0.601866 5.69162 0.392384 5.84494 0.315267 6.08132C0.237574 6.31827 0.316418 6.56742 0.515541 6.71494L4.5124 9.68907L2.94473 14.6878C2.86992 14.9253 2.95049 15.1727 3.15076 15.3191C3.25147 15.3922 3.36657 15.4294 3.48167 15.4294C3.59562 15.4294 3.709 15.3934 3.80741 15.322L8.02123 12.3252L12.193 15.3196C12.3916 15.466 12.6517 15.4654 12.8514 15.3191C13.0517 15.1733 13.1323 14.9259 13.058 14.6883L11.488 9.68907L15.4843 6.71552C15.6834 6.56742 15.7623 6.31827 15.6852 6.0819Z" fill="#F5A623"></path>
</svg>